<?xml version="1.0" encoding="UTF-8" standalone="no"?>
<!DOCTYPE svg PUBLIC "-//W3C//DTD SVG 1.1//EN"
 "http://www.w3.org/Graphics/SVG/1.1/DTD/svg11.dtd">
<!-- Generated by graphviz version 2.43.0 (0)
 -->
<!-- Title: G Pages: 1 -->
<svg width="736pt" height="50pt"
 viewBox="0.00 0.00 735.74 49.89" xmlns="http://www.w3.org/2000/svg" xmlns:xlink="http://www.w3.org/1999/xlink">
<g id="graph0" class="graph" transform="scale(1 1) rotate(0) translate(4 45.89)">
<title>G</title>
<polygon fill="white" stroke="transparent" points="-4,4 -4,-45.89 731.74,-45.89 731.74,4 -4,4"/>
<!-- move up -->
<g id="node1" class="node">
<title>move up</title>
<ellipse fill="none" stroke="black" cx="50.05" cy="-23.89" rx="50.09" ry="18"/>
<text text-anchor="middle" x="50.05" y="-20.19" font-family="Times,serif" font-size="14.00">move up</text>
</g>
<!-- staying -->
<g id="node2" class="node">
<title>staying</title>
<polygon fill="none" stroke="black" points="350.05,-41.89 286.7,-23.89 350.05,-5.89 413.39,-23.89 350.05,-41.89"/>
<polyline fill="none" stroke="black" points="298.24,-27.17 298.24,-20.61 "/>
<polyline fill="none" stroke="black" points="338.5,-9.17 361.59,-9.17 "/>
<polyline fill="none" stroke="black" points="401.85,-20.61 401.85,-27.17 "/>
<polyline fill="none" stroke="black" points="361.59,-38.61 338.5,-38.61 "/>
<text text-anchor="middle" x="350.05" y="-20.19" font-family="Times,serif" font-size="14.00">staying</text>
</g>
<!-- move up&#45;&gt;staying -->
<g id="edge4" class="edge">
<title>move up&#45;&gt;staying</title>
<path fill="none" stroke="black" d="M100.26,-23.89C148.37,-23.89 221.54,-23.89 276.27,-23.89"/>
<polygon fill="black" stroke="black" points="276.61,-27.39 286.61,-23.89 276.61,-20.39 276.61,-27.39"/>
<text text-anchor="middle" x="193.36" y="-30.69" font-family="Times,serif" font-size="14.00">call to level == current</text>
</g>
<!-- staying&#45;&gt;move up -->
<g id="edge1" class="edge">
<title>staying&#45;&gt;move up</title>
<path fill="none" stroke="black" d="M318.37,-14.88C304.26,-11.32 287.36,-7.65 271.86,-5.89 237.19,-1.95 149.43,-1.18 114.86,-5.89 109,-6.69 102.93,-7.87 96.95,-9.26"/>
<polygon fill="black" stroke="black" points="95.88,-5.92 87.04,-11.76 97.59,-12.71 95.88,-5.92"/>
<text text-anchor="middle" x="193.36" y="-9.69" font-family="Times,serif" font-size="14.00">call to level &gt; current</text>
</g>
<!-- move down -->
<g id="node3" class="node">
<title>move down</title>
<ellipse fill="none" stroke="black" cx="664.05" cy="-23.89" rx="63.89" ry="18"/>
<text text-anchor="middle" x="664.05" y="-20.19" font-family="Times,serif" font-size="14.00">move down</text>
</g>
<!-- staying&#45;&gt;move down -->
<g id="edge2" class="edge">
<title>staying&#45;&gt;move down</title>
<path fill="none" stroke="black" d="M381.79,-14.88C395.93,-11.32 412.87,-7.65 428.41,-5.89 497.74,1.97 516.07,1.95 585.41,-5.89 592.76,-6.72 600.43,-7.97 607.97,-9.44"/>
<polygon fill="black" stroke="black" points="607.27,-12.87 617.77,-11.48 608.69,-6.02 607.27,-12.87"/>
<text text-anchor="middle" x="506.91" y="-9.69" font-family="Times,serif" font-size="14.00">call to level &lt; current</text>
</g>
<!-- move down&#45;&gt;staying -->
<g id="edge3" class="edge">
<title>move down&#45;&gt;staying</title>
<path fill="none" stroke="black" d="M600.33,-23.89C549.19,-23.89 477.33,-23.89 423.72,-23.89"/>
<polygon fill="black" stroke="black" points="423.59,-20.39 413.59,-23.89 423.59,-27.39 423.59,-20.39"/>
<text text-anchor="middle" x="506.91" y="-30.69" font-family="Times,serif" font-size="14.00">call to level == current</text>
</g>
</g>
</svg>
